<?xml version="1.0" encoding="UTF-8" standalone="no"?>
<!DOCTYPE svg PUBLIC "-//W3C//DTD SVG 1.1//EN"
 "http://www.w3.org/Graphics/SVG/1.1/DTD/svg11.dtd">
<!-- Generated by graphviz version 2.50.0 (0)
 -->
<!-- Title: Tree Pages: 1 -->
<svg width="1419pt" height="433pt"
 viewBox="0.00 0.00 1418.50 433.00" xmlns="http://www.w3.org/2000/svg" xmlns:xlink="http://www.w3.org/1999/xlink">
<g id="graph0" class="graph" transform="scale(1 1) rotate(0) translate(4 429)">
<title>Tree</title>
<polygon fill="white" stroke="transparent" points="-4,4 -4,-429 1414.5,-429 1414.5,4 -4,4"/>
<!-- 0 -->
<g id="node1" class="node">
<title>0</title>
<polygon fill="#eae9fc" stroke="black" points="844,-425 629,-425 629,-342 844,-342 844,-425"/>
<text text-anchor="start" x="712" y="-409.8" font-family="Helvetica,sans-Serif" font-size="14.00">node #0</text>
<text text-anchor="start" x="701" y="-394.8" font-family="Helvetica,sans-Serif" font-size="14.00">cumin ≤ 0.5</text>
<text text-anchor="start" x="688" y="-379.8" font-family="Helvetica,sans-Serif" font-size="14.00">samples = 2448</text>
<text text-anchor="start" x="637" y="-364.8" font-family="Helvetica,sans-Serif" font-size="14.00">value = [442, 598, 320, 799, 289]</text>
<text text-anchor="start" x="692.5" y="-349.8" font-family="Helvetica,sans-Serif" font-size="14.00">class = korean</text>
</g>
<!-- 1 -->
<g id="node2" class="node">
<title>1</title>
<polygon fill="#d2d1f9" stroke="black" points="686,-306 471,-306 471,-223 686,-223 686,-306"/>
<text text-anchor="start" x="554" y="-290.8" font-family="Helvetica,sans-Serif" font-size="14.00">node #1</text>
<text text-anchor="start" x="492.5" y="-275.8" font-family="Helvetica,sans-Serif" font-size="14.00">roasted_sesame_seed ≤ 0.5</text>
<text text-anchor="start" x="530" y="-260.8" font-family="Helvetica,sans-Serif" font-size="14.00">samples = 1986</text>
<text text-anchor="start" x="479" y="-245.8" font-family="Helvetica,sans-Serif" font-size="14.00">value = [438, 237, 314, 796, 201]</text>
<text text-anchor="start" x="534.5" y="-230.8" font-family="Helvetica,sans-Serif" font-size="14.00">class = korean</text>
</g>
<!-- 0&#45;&gt;1 -->
<g id="edge1" class="edge">
<title>0&#45;&gt;1</title>
<path fill="none" stroke="black" d="M681.68,-341.91C668.69,-332.29 654.74,-321.95 641.42,-312.09"/>
<polygon fill="black" stroke="black" points="643.34,-309.16 633.22,-306.02 639.17,-314.78 643.34,-309.16"/>
<text text-anchor="middle" x="636.91" y="-327.05" font-family="Helvetica,sans-Serif" font-size="14.00">True</text>
</g>
<!-- 8 -->
<g id="node9" class="node">
<title>8</title>
<polygon fill="#9fec6e" stroke="black" points="1003.5,-306 841.5,-306 841.5,-223 1003.5,-223 1003.5,-306"/>
<text text-anchor="start" x="898" y="-290.8" font-family="Helvetica,sans-Serif" font-size="14.00">node #8</text>
<text text-anchor="start" x="895" y="-275.8" font-family="Helvetica,sans-Serif" font-size="14.00">fish ≤ 0.5</text>
<text text-anchor="start" x="877.5" y="-260.8" font-family="Helvetica,sans-Serif" font-size="14.00">samples = 462</text>
<text text-anchor="start" x="849.5" y="-245.8" font-family="Helvetica,sans-Serif" font-size="14.00">value = [4, 361, 6, 3, 88]</text>
<text text-anchor="start" x="881" y="-230.8" font-family="Helvetica,sans-Serif" font-size="14.00">class = indian</text>
</g>
<!-- 0&#45;&gt;8 -->
<g id="edge8" class="edge">
<title>0&#45;&gt;8</title>
<path fill="none" stroke="black" d="M801.03,-341.91C816.61,-332.11 833.37,-321.56 849.32,-311.53"/>
<polygon fill="black" stroke="black" points="851.48,-314.31 858.08,-306.02 847.75,-308.38 851.48,-314.31"/>
<text text-anchor="middle" x="852.53" y="-326.7" font-family="Helvetica,sans-Serif" font-size="14.00">False</text>
</g>
<!-- 2 -->
<g id="node3" class="node">
<title>2</title>
<polygon fill="#ececfc" stroke="black" points="429,-187 214,-187 214,-104 429,-104 429,-187"/>
<text text-anchor="start" x="297" y="-171.8" font-family="Helvetica,sans-Serif" font-size="14.00">node #2</text>
<text text-anchor="start" x="286" y="-156.8" font-family="Helvetica,sans-Serif" font-size="14.00">starch ≤ 0.5</text>
<text text-anchor="start" x="273" y="-141.8" font-family="Helvetica,sans-Serif" font-size="14.00">samples = 1738</text>
<text text-anchor="start" x="222" y="-126.8" font-family="Helvetica,sans-Serif" font-size="14.00">value = [433, 237, 309, 560, 199]</text>
<text text-anchor="start" x="277.5" y="-111.8" font-family="Helvetica,sans-Serif" font-size="14.00">class = korean</text>
</g>
<!-- 1&#45;&gt;2 -->
<g id="edge2" class="edge">
<title>1&#45;&gt;2</title>
<path fill="none" stroke="black" d="M489.34,-222.91C466.91,-212.7 442.71,-201.68 419.87,-191.28"/>
<polygon fill="black" stroke="black" points="421.06,-187.98 410.51,-187.02 418.16,-194.35 421.06,-187.98"/>
</g>
<!-- 5 -->
<g id="node6" class="node">
<title>5</title>
<polygon fill="#4643e6" stroke="black" points="656,-187 501,-187 501,-104 656,-104 656,-187"/>
<text text-anchor="start" x="554" y="-171.8" font-family="Helvetica,sans-Serif" font-size="14.00">node #5</text>
<text text-anchor="start" x="539.5" y="-156.8" font-family="Helvetica,sans-Serif" font-size="14.00">cilantro ≤ 0.5</text>
<text text-anchor="start" x="533.5" y="-141.8" font-family="Helvetica,sans-Serif" font-size="14.00">samples = 248</text>
<text text-anchor="start" x="509" y="-126.8" font-family="Helvetica,sans-Serif" font-size="14.00">value = [5, 0, 5, 236, 2]</text>
<text text-anchor="start" x="534.5" y="-111.8" font-family="Helvetica,sans-Serif" font-size="14.00">class = korean</text>
</g>
<!-- 1&#45;&gt;5 -->
<g id="edge5" class="edge">
<title>1&#45;&gt;5</title>
<path fill="none" stroke="black" d="M578.5,-222.91C578.5,-214.65 578.5,-205.86 578.5,-197.3"/>
<polygon fill="black" stroke="black" points="582,-197.02 578.5,-187.02 575,-197.02 582,-197.02"/>
</g>
<!-- 3 -->
<g id="node4" class="node">
<title>3</title>
<polygon fill="#dbdafa" stroke="black" points="215,-68 0,-68 0,0 215,0 215,-68"/>
<text text-anchor="start" x="83" y="-52.8" font-family="Helvetica,sans-Serif" font-size="14.00">node #3</text>
<text text-anchor="start" x="59" y="-37.8" font-family="Helvetica,sans-Serif" font-size="14.00">samples = 1507</text>
<text text-anchor="start" x="8" y="-22.8" font-family="Helvetica,sans-Serif" font-size="14.00">value = [273, 235, 293, 519, 187]</text>
<text text-anchor="start" x="63.5" y="-7.8" font-family="Helvetica,sans-Serif" font-size="14.00">class = korean</text>
</g>
<!-- 2&#45;&gt;3 -->
<g id="edge3" class="edge">
<title>2&#45;&gt;3</title>
<path fill="none" stroke="black" d="M242.12,-103.88C222.11,-93.64 200.71,-82.69 181,-72.61"/>
<polygon fill="black" stroke="black" points="182.57,-69.48 172.08,-68.04 179.39,-75.71 182.57,-69.48"/>
</g>
<!-- 4 -->
<g id="node5" class="node">
<title>4</title>
<polygon fill="#efb083" stroke="black" points="410,-68 233,-68 233,0 410,0 410,-68"/>
<text text-anchor="start" x="297" y="-52.8" font-family="Helvetica,sans-Serif" font-size="14.00">node #4</text>
<text text-anchor="start" x="276.5" y="-37.8" font-family="Helvetica,sans-Serif" font-size="14.00">samples = 231</text>
<text text-anchor="start" x="241" y="-22.8" font-family="Helvetica,sans-Serif" font-size="14.00">value = [160, 2, 16, 41, 12]</text>
<text text-anchor="start" x="274.5" y="-7.8" font-family="Helvetica,sans-Serif" font-size="14.00">class = chinese</text>
</g>
<!-- 2&#45;&gt;4 -->
<g id="edge4" class="edge">
<title>2&#45;&gt;4</title>
<path fill="none" stroke="black" d="M321.5,-103.73C321.5,-95.52 321.5,-86.86 321.5,-78.56"/>
<polygon fill="black" stroke="black" points="325,-78.3 321.5,-68.3 318,-78.3 325,-78.3"/>
</g>
<!-- 6 -->
<g id="node7" class="node">
<title>6</title>
<polygon fill="#4441e6" stroke="black" points="583,-68 428,-68 428,0 583,0 583,-68"/>
<text text-anchor="start" x="481" y="-52.8" font-family="Helvetica,sans-Serif" font-size="14.00">node #6</text>
<text text-anchor="start" x="460.5" y="-37.8" font-family="Helvetica,sans-Serif" font-size="14.00">samples = 246</text>
<text text-anchor="start" x="436" y="-22.8" font-family="Helvetica,sans-Serif" font-size="14.00">value = [4, 0, 5, 236, 1]</text>
<text text-anchor="start" x="461.5" y="-7.8" font-family="Helvetica,sans-Serif" font-size="14.00">class = korean</text>
</g>
<!-- 5&#45;&gt;6 -->
<g id="edge6" class="edge">
<title>5&#45;&gt;6</title>
<path fill="none" stroke="black" d="M551.32,-103.73C545.42,-94.88 539.17,-85.51 533.25,-76.63"/>
<polygon fill="black" stroke="black" points="536.16,-74.68 527.7,-68.3 530.33,-78.56 536.16,-74.68"/>
</g>
<!-- 7 -->
<g id="node8" class="node">
<title>7</title>
<polygon fill="#ffffff" stroke="black" points="741.5,-68 601.5,-68 601.5,0 741.5,0 741.5,-68"/>
<text text-anchor="start" x="647" y="-52.8" font-family="Helvetica,sans-Serif" font-size="14.00">node #7</text>
<text text-anchor="start" x="634" y="-37.8" font-family="Helvetica,sans-Serif" font-size="14.00">samples = 2</text>
<text text-anchor="start" x="609.5" y="-22.8" font-family="Helvetica,sans-Serif" font-size="14.00">value = [1, 0, 0, 0, 1]</text>
<text text-anchor="start" x="624.5" y="-7.8" font-family="Helvetica,sans-Serif" font-size="14.00">class = chinese</text>
</g>
<!-- 5&#45;&gt;7 -->
<g id="edge7" class="edge">
<title>5&#45;&gt;7</title>
<path fill="none" stroke="black" d="M613.13,-103.73C620.8,-94.7 628.93,-85.12 636.61,-76.08"/>
<polygon fill="black" stroke="black" points="639.41,-78.19 643.22,-68.3 634.08,-73.66 639.41,-78.19"/>
</g>
<!-- 9 -->
<g id="node10" class="node">
<title>9</title>
<polygon fill="#8ee956" stroke="black" points="1003.5,-187 841.5,-187 841.5,-104 1003.5,-104 1003.5,-187"/>
<text text-anchor="start" x="898" y="-171.8" font-family="Helvetica,sans-Serif" font-size="14.00">node #9</text>
<text text-anchor="start" x="873" y="-156.8" font-family="Helvetica,sans-Serif" font-size="14.00">soy_sauce ≤ 0.5</text>
<text text-anchor="start" x="877.5" y="-141.8" font-family="Helvetica,sans-Serif" font-size="14.00">samples = 405</text>
<text text-anchor="start" x="849.5" y="-126.8" font-family="Helvetica,sans-Serif" font-size="14.00">value = [4, 353, 3, 1, 44]</text>
<text text-anchor="start" x="881" y="-111.8" font-family="Helvetica,sans-Serif" font-size="14.00">class = indian</text>
</g>
<!-- 8&#45;&gt;9 -->
<g id="edge9" class="edge">
<title>8&#45;&gt;9</title>
<path fill="none" stroke="black" d="M922.5,-222.91C922.5,-214.65 922.5,-205.86 922.5,-197.3"/>
<polygon fill="black" stroke="black" points="926,-197.02 922.5,-187.02 919,-197.02 926,-197.02"/>
</g>
<!-- 12 -->
<g id="node13" class="node">
<title>12</title>
<polygon fill="#ec6ed1" stroke="black" points="1252,-187 1105,-187 1105,-104 1252,-104 1252,-187"/>
<text text-anchor="start" x="1150" y="-171.8" font-family="Helvetica,sans-Serif" font-size="14.00">node #12</text>
<text text-anchor="start" x="1142.5" y="-156.8" font-family="Helvetica,sans-Serif" font-size="14.00">yogurt ≤ 0.5</text>
<text text-anchor="start" x="1137.5" y="-141.8" font-family="Helvetica,sans-Serif" font-size="14.00">samples = 57</text>
<text text-anchor="start" x="1113" y="-126.8" font-family="Helvetica,sans-Serif" font-size="14.00">value = [0, 8, 3, 2, 44]</text>
<text text-anchor="start" x="1144" y="-111.8" font-family="Helvetica,sans-Serif" font-size="14.00">class = thai</text>
</g>
<!-- 8&#45;&gt;12 -->
<g id="edge12" class="edge">
<title>8&#45;&gt;12</title>
<path fill="none" stroke="black" d="M1003.85,-226.32C1033.05,-212.98 1066,-197.92 1095.34,-184.51"/>
<polygon fill="black" stroke="black" points="1097.1,-187.55 1104.74,-180.21 1094.19,-181.19 1097.1,-187.55"/>
</g>
<!-- 10 -->
<g id="node11" class="node">
<title>10</title>
<polygon fill="#86e749" stroke="black" points="921.5,-68 759.5,-68 759.5,0 921.5,0 921.5,-68"/>
<text text-anchor="start" x="812" y="-52.8" font-family="Helvetica,sans-Serif" font-size="14.00">node #10</text>
<text text-anchor="start" x="795.5" y="-37.8" font-family="Helvetica,sans-Serif" font-size="14.00">samples = 375</text>
<text text-anchor="start" x="767.5" y="-22.8" font-family="Helvetica,sans-Serif" font-size="14.00">value = [1, 346, 2, 1, 25]</text>
<text text-anchor="start" x="799" y="-7.8" font-family="Helvetica,sans-Serif" font-size="14.00">class = indian</text>
</g>
<!-- 9&#45;&gt;10 -->
<g id="edge10" class="edge">
<title>9&#45;&gt;10</title>
<path fill="none" stroke="black" d="M891.97,-103.73C885.27,-94.79 878.18,-85.32 871.47,-76.36"/>
<polygon fill="black" stroke="black" points="874.23,-74.21 865.44,-68.3 868.63,-78.4 874.23,-74.21"/>
</g>
<!-- 11 -->
<g id="node12" class="node">
<title>11</title>
<polygon fill="#f198de" stroke="black" points="1087,-68 940,-68 940,0 1087,0 1087,-68"/>
<text text-anchor="start" x="985.5" y="-52.8" font-family="Helvetica,sans-Serif" font-size="14.00">node #11</text>
<text text-anchor="start" x="972.5" y="-37.8" font-family="Helvetica,sans-Serif" font-size="14.00">samples = 30</text>
<text text-anchor="start" x="948" y="-22.8" font-family="Helvetica,sans-Serif" font-size="14.00">value = [3, 7, 1, 0, 19]</text>
<text text-anchor="start" x="979" y="-7.8" font-family="Helvetica,sans-Serif" font-size="14.00">class = thai</text>
</g>
<!-- 9&#45;&gt;11 -->
<g id="edge11" class="edge">
<title>9&#45;&gt;11</title>
<path fill="none" stroke="black" d="M956.39,-103.73C963.89,-94.7 971.84,-85.12 979.36,-76.08"/>
<polygon fill="black" stroke="black" points="982.13,-78.23 985.83,-68.3 976.74,-73.75 982.13,-78.23"/>
</g>
<!-- 13 -->
<g id="node14" class="node">
<title>13</title>
<polygon fill="#e959ca" stroke="black" points="1252,-68 1105,-68 1105,0 1252,0 1252,-68"/>
<text text-anchor="start" x="1150" y="-52.8" font-family="Helvetica,sans-Serif" font-size="14.00">node #13</text>
<text text-anchor="start" x="1137.5" y="-37.8" font-family="Helvetica,sans-Serif" font-size="14.00">samples = 52</text>
<text text-anchor="start" x="1113" y="-22.8" font-family="Helvetica,sans-Serif" font-size="14.00">value = [0, 3, 3, 2, 44]</text>
<text text-anchor="start" x="1144" y="-7.8" font-family="Helvetica,sans-Serif" font-size="14.00">class = thai</text>
</g>
<!-- 12&#45;&gt;13 -->
<g id="edge13" class="edge">
<title>12&#45;&gt;13</title>
<path fill="none" stroke="black" d="M1178.5,-103.73C1178.5,-95.52 1178.5,-86.86 1178.5,-78.56"/>
<polygon fill="black" stroke="black" points="1182,-78.3 1178.5,-68.3 1175,-78.3 1182,-78.3"/>
</g>
<!-- 14 -->
<g id="node15" class="node">
<title>14</title>
<polygon fill="#7be539" stroke="black" points="1410.5,-68 1270.5,-68 1270.5,0 1410.5,0 1410.5,-68"/>
<text text-anchor="start" x="1312" y="-52.8" font-family="Helvetica,sans-Serif" font-size="14.00">node #14</text>
<text text-anchor="start" x="1303" y="-37.8" font-family="Helvetica,sans-Serif" font-size="14.00">samples = 5</text>
<text text-anchor="start" x="1278.5" y="-22.8" font-family="Helvetica,sans-Serif" font-size="14.00">value = [0, 5, 0, 0, 0]</text>
<text text-anchor="start" x="1299" y="-7.8" font-family="Helvetica,sans-Serif" font-size="14.00">class = indian</text>
</g>
<!-- 12&#45;&gt;14 -->
<g id="edge14" class="edge">
<title>12&#45;&gt;14</title>
<path fill="none" stroke="black" d="M1238.82,-103.73C1253.34,-93.92 1268.8,-83.46 1283.17,-73.75"/>
<polygon fill="black" stroke="black" points="1285.17,-76.62 1291.49,-68.13 1281.25,-70.83 1285.17,-76.62"/>
</g>
</g>
</svg>
